<?xml version="1.0" encoding="utf-8"?>
<!-- Generator: Adobe Illustrator 27.5.0, SVG Export Plug-In . SVG Version: 6.00 Build 0)  -->
<svg version="1.1" xmlns="http://www.w3.org/2000/svg" xmlns:xlink="http://www.w3.org/1999/xlink" x="0px" y="0px"
	 viewBox="0 0 3710 3710" style="enable-background:new 0 0 3710 3710;" xml:space="preserve">
<g id="Background">
	<g>
		<g>
			<rect style="fill:#FFFFFF;" width="3710" height="3710"/>
		</g>
	</g>
</g>
<g id="Illustration">
	<g>
		<path style="fill:#F4F7FA;" d="M1747.582,486.515c-528.056-15.179-1159.146,292.39-1241.275,701.619
			c-82.496,411.065,431.759,711.185,306.418,1254.93c-61.617,267.306-214.651,319.505-171.337,453.297
			c103.087,318.433,1117.061,477.11,1843.923,49.851c120.438-70.796,661.122-388.615,726.553-952.27
			C3296.573,1264.229,2539.849,509.289,1747.582,486.515z"/>
		<g>
			<path style="fill:#D8DEE8;" d="M1767.452,2188.051c46.267-187.286,14.118-301.66-24.659-371.898
				c-52.911-95.838-166.016-196.182-251.405-271.937c-82.617-73.295-154.561-125.585-143.754-184.604
				c5.06-27.638,27.216-51.013,50.28-60.827c51.37-21.859,112.341,21.385,141.195,41.849
				c91.832,65.133,117.497,151.308,143.713,143.339c14.271-4.338,19.762-33.857,18.813-56.265
				c-3.564-84.207-101.314-145.203-188.011-197.817c-124.383-75.485-184.309-76.833-240.179-156.115
				c-12.45-17.668-50.962-72.317-31.241-106.947c19.469-34.186,84.614-29.42,98.505-28.404
				c118.674,8.682,192.935,113.218,201.628,105.123c7.64-7.114-41.057-95.909-137.044-184.14
				c-92.012-84.576-160.778-107.324-156.712-153.104c2.875-32.367,40.877-61.831,74.991-66.849
				c36.416-5.358,54.863,19.131,145.497,65.88c48.265,24.895,93.767,48.365,102.109,38.197c11.9-14.506-57.837-90.139-61.829-94.437
				c-79.798-85.907-140.055-99.909-136.804-130.313c3.418-31.965,74.338-56.9,133.622-58.763
				c79.029-2.485,177.052,34.784,243.277,106.598c37.528,40.695,63.646,91.182,111.989,92.679
				c5.661,0.175,25.112,0.777,30.586-9.485c12.295-23.051-65.68-63.899-71.775-140.313c-1.201-15.053-2.719-34.081,8.982-45.249
				c28.824-27.511,119.37,10.315,177.962,61.36c66.165,57.641,96.77,136.655,104.59,157.464
				c23.86,63.484,25.652,115.059,50.018,118.801c14.06,2.159,31.014-12.319,38.399-28.217
				c26.968-58.053-72.797-136.854-51.989-166.716c13.94-20.005,74.262-6.956,117.257,15.71
				c58.696,30.943,114.424,95.271,130.999,176.63c19.817,97.276-28.904,157.227,17.507,226.656
				c11.067,16.556,26.275,31.754,35.957,28.499c19.513-6.563-4.44-81.032,34.268-114.893c12.253-10.719,30.068-16.74,42.184-15.27
				c61.401,7.45,101.485,222.439,99.514,385.603c-1.369,113.3-5.063,419.089-251.882,654.019
				C2130.507,2195.663,1827.06,2190.299,1767.452,2188.051z"/>
			<path style="opacity:0.88;fill:#FFFFFF;" d="M2031.552,700.166c4.979,58.068-36.007,72.384-29.264,126.809
				c8.002,64.569,69.553,75.577,127.098,147.551c36.514,45.67,42.501,79.724,84.687,269.591
				c48.714,219.243,57.116,247.581,60.256,266.58c22.646,137.01-133.067,365.272-402.616,626.206
				c34.716-11.42,66.174-19.617,94.276-25.562c37.593-7.953,103.68-19.224,169.419-68.963
				c40.226-30.434,66.564-64.863,145.337-210.628c76.174-140.955,114.26-211.433,122.339-250.176
				c24.115-115.65-0.209-216.567-19.464-296.456c-36.211-150.237-79.484-164.557-71.041-258.935
				c7.915-88.474,49.788-118.871,30.514-191.59c-12.105-45.672-35.198-58.486-80.912-127.229
				c-26.006-39.106-45.758-75.906-60.684-107.564c-24.613-4.819-45.747-3.686-53.29,7.139
				c-20.809,29.862,78.957,108.663,51.989,166.716c-7.385,15.898-24.339,30.376-38.399,28.217
				c-24.366-3.742-26.157-55.318-50.018-118.801c-7.82-20.808-38.425-99.823-104.59-157.464
				c-52.687-45.899-131.184-81.08-167.435-67.71c28.047,33.346,52.992,60.741,73.12,82.022
				C1988.485,619.861,2026.943,646.405,2031.552,700.166z"/>
			<path style="opacity:0.88;fill:#FFFFFF;" d="M1342.981,715.925c114.423,99.09,165.134,68.112,270.743,151.426
				c110.827,87.43,98.333,155.743,234.357,244.456c53.365,34.805,60.095,27.425,90.254,53.291
				c105.895,90.822,106.723,253.668,107.108,329.286c0.969,190.185-104.275,418.734-209.2,599.068
				c-11.821,25.022-24.018,48.399-36.147,70.016c2.136-0.882,4.232-1.715,6.349-2.573
				c178.727-257.125,284.539-478.437,310.228-624.467c14.241-80.958,32.954-187.329-20.638-287.487
				c-37.675-70.412-76.216-72.589-118.456-159.981c-50.932-105.375-16.957-147.851-68.115-213.88
				c-48.2-62.214-87.542-36.357-176.568-101.74c-106.266-78.045-94.472-147.394-184.711-218.449
				c-32.085-25.265-79.191-52.411-149.124-67.286c-15.173,8.967-25.282,19.607-26.519,31.177
				c-3.251,30.404,57.006,44.407,136.804,130.313c3.992,4.298,73.729,79.931,61.829,94.437
				c-8.342,10.168-53.844-13.302-102.109-38.197c-90.634-46.749-109.082-71.238-145.497-65.88
				c-13.789,2.028-28.178,8.096-40.66,16.69C1299.611,675.204,1319.515,695.603,1342.981,715.925z"/>
			<path style="opacity:0.88;fill:#FFFFFF;" d="M1836.244,2093.453c55.03-116.482,101.826-268.532,94.823-443.917
				c-3.717-93.09-9.262-231.943-105.071-354.61c-99.357-127.21-253.46-182.819-276.472-190.841
				c-99.78-34.783-149.919-22.57-231.122-72.663c-30.529-18.833-55.905-40.64-77.055-62.912
				c-17.607,34.692,19.844,87.882,32.096,105.268c55.87,79.282,115.797,80.63,240.179,156.115
				c86.697,52.613,184.447,113.61,188.011,197.817c0.948,22.408-4.542,51.927-18.813,56.265
				c-26.216,7.968-51.881-78.207-143.713-143.339c-28.853-20.464-89.825-63.708-141.195-41.849
				c-7.991,3.401-15.856,8.459-22.955,14.729c32.312,17.749,66.179,40.379,99.203,69.577
				c81.991,72.488,78.509,114.25,161.444,179.699c90.924,71.753,133.637,51.965,182.867,112.367
				c59.081,72.487,52.399,168.263,48.428,225.194c-7.295,104.575-47.89,192.088-92.875,258.975
				c-1.189,5.588-2.452,11.244-3.788,16.971c7.376-3.291,14.623-6.416,21.783-9.435
				C1806.557,2143.515,1821.393,2118.978,1836.244,2093.453z"/>
		</g>
		<g>
			
				<linearGradient id="SVGID_1_" gradientUnits="userSpaceOnUse" x1="1819.0314" y1="1454.0225" x2="3141.2683" y2="1454.0225" gradientTransform="matrix(1 -0.0024 0.0024 1 -7.1572 4.8077)">
				<stop  offset="0" style="stop-color:#FF9085"/>
				<stop  offset="1" style="stop-color:#FB6FBB"/>
			</linearGradient>
			<path style="fill:url(#SVGID_1_);" d="M1817.163,2204.068c136.971-135.851,169.038-250.249,172.476-330.405
				c4.691-109.373-39.674-253.92-73.167-363.044c-32.406-105.582-66.63-187.673-26.689-232.447
				c18.704-20.967,49.787-29.398,74.589-25.776c55.242,8.066,84.803,76.723,98.792,109.213
				c44.523,103.407,21.594,190.35,48.127,197.188c14.444,3.723,34.494-18.627,45.345-38.256
				c40.778-73.76-10.952-176.717-57.605-266.761c-66.932-129.186-117.403-161.523-123.854-258.299
				c-1.438-21.566-5.885-88.274,28.977-107.583c34.415-19.061,87.564,18.91,98.897,27.007
				c96.821,69.171,105.834,197.082,117.47,194.694c10.226-2.099,14.851-103.265-21.2-228.559
				c-34.558-120.105-81.442-175.315-54.145-212.292c19.299-26.143,67.083-31.526,98.825-18.06
				c33.885,14.375,36.893,44.887,89.96,131.972c28.259,46.376,54.901,90.096,67.316,85.754c17.71-6.195-2.481-107.071-3.653-112.818
				c-23.436-114.884-67.604-158.199-49.006-182.47c19.553-25.517,93.089-9.903,144.684,19.357
				c68.778,39.005,133.087,121.84,152.267,217.627c10.869,54.28,6.898,110.984,47.401,137.419
				c4.743,3.096,21.04,13.732,31.054,7.817c22.495-13.286-22.833-88.744,11.728-157.169c6.808-13.479,15.414-30.517,31.217-33.964
				c38.93-8.492,96.565,70.928,120.035,145.007c26.503,83.653,11.52,167.052,7.369,188.89
				c-12.662,66.627-37.972,111.601-19.112,127.476c10.884,9.161,32.894,5.62,47.474-4.113
				c53.239-35.538,9.055-154.746,42.364-169.417c22.314-9.828,67.034,32.706,91.953,74.435c34.019,56.968,48.131,140.9,19.946,219
				c-33.7,93.379-106.502,119.219-103.001,202.658c0.835,19.896,5.912,40.789,15.874,43.047
				c20.079,4.551,38.377-71.506,89.052-80.277c16.042-2.777,34.387,1.352,43.968,8.913
				c48.555,38.314-29.095,242.759-115.688,381.063c-60.13,96.038-222.415,355.236-555.437,427.405
				C2123.224,2399.5,1866.893,2237.007,1817.163,2204.068z"/>
			<path style="opacity:0.26;fill:#FFFFFF;" d="M2816.972,1070.959c-25.967,52.177-68.416,43.073-90.979,93.057
				c-26.769,59.302,20.063,100.732,31.747,192.139c7.414,58-5.195,90.195-67.977,274.281
				c-72.495,212.568-80.068,241.139-87.273,258.996c-51.961,128.781-303.715,242.668-669.678,325.215
				c35.588,8.314,66.716,17.685,93.807,27.232c36.24,12.772,98.539,37.538,180.559,29.276
				c50.187-5.055,90.595-20.749,233.716-104.228c138.399-80.725,207.599-121.088,234.659-149.968
				c80.776-86.208,112.522-185.041,137.653-263.281c47.261-147.135,17.762-181.883,74.085-258.08
				c52.8-71.431,104.375-75.597,125.759-147.724c13.431-45.3,0.38-68.259-2.883-150.749c-1.856-46.927,0.427-88.631,4.156-123.432
				c-18.51-16.924-37.146-26.954-49.221-21.636c-33.309,14.671,10.876,133.879-42.364,169.417
				c-14.58,9.733-36.59,13.274-47.474,4.113c-18.86-15.875,6.45-60.849,19.112-127.476c4.151-21.838,19.135-105.238-7.369-188.89
				c-21.105-66.613-69.828-137.505-107.741-144.952c6.598,43.07,13.642,79.445,19.756,108.092
				C2821.986,979.973,2841.012,1022.654,2816.972,1070.959z"/>
			<path style="opacity:0.26;fill:#FFFFFF;" d="M2220.781,726.089c46.143,144.161,105.567,144.097,152.394,270.2
				c49.14,132.332,2.921,184.165,72.91,330.705c27.458,57.491,37.045,54.692,49.338,92.475
				c43.163,132.662-40.873,272.151-79.896,336.924c-98.144,162.908-306.949,303.304-490.393,402.694
				c-23.116,15.215-45.696,28.83-67.303,40.978c2.283,0.358,4.507,0.738,6.761,1.106
				c286.426-126.557,491.952-260.478,589.881-371.808c54.292-61.721,125.625-142.816,131.984-256.232
				c4.47-79.733-27.308-101.648-17.9-198.256c11.344-116.487,62.46-135.078,53.137-218.084
				c-8.783-78.209-55.834-76.603-97.831-178.764c-50.128-121.945-3.969-175.027-44.05-282.662
				c-14.251-38.271-40.349-85.966-92.326-135.06c-17.623-0.238-31.792,3.587-38.869,12.823
				c-18.598,24.271,25.57,67.586,49.006,182.47c1.172,5.748,21.364,106.624,3.653,112.818
				c-12.415,4.342-39.056-39.379-67.316-85.754c-53.067-87.086-56.076-117.597-89.96-131.972c-12.83-5.443-28.275-7.75-43.406-6.907
				C2204.938,668.746,2211.319,696.524,2220.781,726.089z"/>
			<path style="opacity:0.26;fill:#FFFFFF;" d="M1925.134,2159.087c107.608-70.83,226.695-176.317,311.983-329.727
				c45.27-81.427,112.793-202.883,94.814-357.489c-18.644-160.332-121.298-288.013-136.774-306.839
				c-67.104-81.627-116.274-97.29-159.547-182.323c-16.269-31.969-26.591-63.797-33.06-93.821
				c-33.089,20.462-28.788,85.371-27.373,106.593c6.451,96.776,56.922,129.112,123.854,258.299
				c46.653,90.044,98.382,193,57.605,266.761c-10.851,19.629-30.901,41.978-45.345,38.256
				c-26.533-6.838-3.604-93.781-48.127-197.188c-13.989-32.49-43.55-101.147-98.792-109.213c-8.594-1.255-17.942-1.027-27.267,0.632
				c18.356,31.971,35.499,68.92,48.505,111.038c32.292,104.567,7.586,138.417,44.347,237.465
				c40.302,108.588,87.074,113.918,97.68,191.116c12.729,92.644-42.818,170.952-75.836,217.5
				c-60.65,85.503-140.855,139.108-214.077,172.814c-3.924,4.153-7.945,8.325-12.067,12.521c8.011,1.029,15.826,2.131,23.511,3.279
				C1873.732,2186.388,1899.169,2173.155,1925.134,2159.087z"/>
		</g>
		<g>
			
				<linearGradient id="SVGID_00000099643773323561542470000007529800788373419405_" gradientUnits="userSpaceOnUse" x1="232.06" y1="1992.1587" x2="598.1414" y2="2050.9932" gradientTransform="matrix(1 -0.0024 0.0024 1 -7.1572 4.8077)">
				<stop  offset="0" style="stop-color:#FF9085"/>
				<stop  offset="1" style="stop-color:#FB6FBB"/>
			</linearGradient>
			<path style="fill:url(#SVGID_00000099643773323561542470000007529800788373419405_);" d="M2947.456,2832.097
				c0.087,35.655-25.152,66.39-56.206,68.307L703.246,3039.398c-41.451,2.558-88.333-32.403-88.434-73.849l-3.731-1531.445
				c-0.101-41.446,47.738-76.412,89.198-74.794l2187.433,88.297c31.062,1.213,56.449,31.373,56.536,67.027L2947.456,2832.097z"/>
			
				<linearGradient id="SVGID_00000069384965141598002920000011382560213034250400_" gradientUnits="userSpaceOnUse" x1="1147.0448" y1="1439.9069" x2="2663.6311" y2="3250.6582" gradientTransform="matrix(1 -0.0024 0.0024 1 -7.1572 4.8077)">
				<stop  offset="0" style="stop-color:#FFC444"/>
				<stop  offset="0.9964" style="stop-color:#F36F56"/>
			</linearGradient>
			<path style="fill:url(#SVGID_00000069384965141598002920000011382560213034250400_);" d="M2988.033,2834.5
				c0.087,35.828-25.273,66.711-56.479,68.637L720.172,3039.635c-41.651,2.571-75.968-29.39-76.069-71.037l-3.749-1538.854
				c-0.102-41.647,34.057-74.385,75.718-72.759l2211.926,86.326c31.213,1.217,56.723,31.524,56.81,67.352L2988.033,2834.5z"/>
			<path style="opacity:0.77;fill:#FFFFFF;" d="M1739.518,2588.942l-747.706,28.835c-31.708,1.223-58.1-24.11-58.178-55.841
				l-2.187-897.592c-0.077-31.565,25.928-56.962,57.483-56.137l747.823,19.54c30.305,0.792,54.482,25.548,54.556,55.864
				l2.069,849.217C1793.452,2562.979,1769.647,2587.78,1739.518,2588.942z"/>
			<g>
				
					<linearGradient id="SVGID_00000162333470241138142140000007098929278517691292_" gradientUnits="userSpaceOnUse" x1="2135.7827" y1="1578.6648" x2="3425.6985" y2="2309.9092" gradientTransform="matrix(1.0022 -0.0111 0.0024 1 -8.4346 11.1876)">
					<stop  offset="0" style="stop-color:#F57E53"/>
					<stop  offset="0.0045" style="stop-color:#F58152"/>
					<stop  offset="0.042" style="stop-color:#F99A4D"/>
					<stop  offset="0.084" style="stop-color:#FCAD49"/>
					<stop  offset="0.1333" style="stop-color:#FEBA46"/>
					<stop  offset="0.1962" style="stop-color:#FFC244"/>
					<stop  offset="0.3183" style="stop-color:#FFC444"/>
					<stop  offset="0.455" style="stop-color:#FDB946"/>
					<stop  offset="0.6941" style="stop-color:#F99C4C"/>
					<stop  offset="0.9964" style="stop-color:#F36F56"/>
				</linearGradient>
				<path style="fill:url(#SVGID_00000162333470241138142140000007098929278517691292_);" d="M2810.457,2034.949l-172.621,1.54
					c-31.733,0.283-57.859-25.863-57.937-58.104l-0.428-175.86c-0.079-32.241,25.92-58.356,57.654-58.034l172.63,1.752
					c30.896,0.313,56.144,26.456,56.221,58.097l0.421,172.582C2866.472,2008.561,2841.351,2034.673,2810.457,2034.949z"/>
				
					<linearGradient id="SVGID_00000091718833072985323840000010494883902068559255_" gradientUnits="userSpaceOnUse" x1="2599.1482" y1="1892.0531" x2="2852.5383" y2="1892.0531" gradientTransform="matrix(1 -0.0024 0.0024 1 -7.1572 4.8077)">
					<stop  offset="0" style="stop-color:#FF9085"/>
					<stop  offset="1" style="stop-color:#FB6FBB"/>
				</linearGradient>
				<path style="fill:url(#SVGID_00000091718833072985323840000010494883902068559255_);" d="M2798.373,2018.385l-148.279,1.16
					c-29.312,0.229-53.304-23.831-53.376-53.632l-0.368-150.895c-0.073-29.804,23.801-53.834,53.115-53.569l148.286,1.342
					c28.638,0.259,51.918,24.316,51.989,53.628l0.362,148.405C2850.173,1994.132,2827.011,2018.161,2798.373,2018.385z
					 M2649.483,1768.928c-25.236-0.216-45.779,20.479-45.717,46.13l0.368,150.823c0.062,25.65,20.707,46.369,45.941,46.184
					l148.28-1.088c24.667-0.181,44.627-20.873,44.566-46.124l-0.362-148.475c-0.061-25.254-20.123-45.97-44.791-46.181
					L2649.483,1768.928z"/>
				<g>
					<g>
						<path style="fill:#F4F7FA;" d="M2600.104,1833.735l246.094,1.06L2600.104,1833.735z"/>
						
							<linearGradient id="SVGID_00000125602580327989651850000003153290616456767881_" gradientUnits="userSpaceOnUse" x1="2598.3799" y1="1853.2522" x2="2843.9211" y2="1853.2522" gradientTransform="matrix(1.0022 -0.0111 0.0024 1 -8.4346 11.1876)">
							<stop  offset="0" style="stop-color:#FF9085"/>
							<stop  offset="1" style="stop-color:#FB6FBB"/>
						</linearGradient>
						<polygon style="fill:url(#SVGID_00000125602580327989651850000003153290616456767881_);" points="2846.205,1838.487 
							2600.115,1837.487 2600.096,1829.983 2846.187,1831.104 						"/>
					</g>
					<g>
						<path style="fill:#F4F7FA;" d="M2600.242,1890.467l246.092,0.151L2600.242,1890.467z"/>
						
							<linearGradient id="SVGID_00000176022649717734663500000003916189270630349976_" gradientUnits="userSpaceOnUse" x1="2598.3821" y1="1909.5302" x2="2843.9231" y2="1909.5302" gradientTransform="matrix(1.0022 -0.0111 0.0024 1 -8.4346 11.1876)">
							<stop  offset="0" style="stop-color:#FF9085"/>
							<stop  offset="1" style="stop-color:#FB6FBB"/>
						</linearGradient>
						<polygon style="fill:url(#SVGID_00000176022649717734663500000003916189270630349976_);" points="2846.341,1894.31 
							2600.252,1894.219 2600.234,1886.716 2846.323,1886.926 						"/>
					</g>
					<g>
						<path style="fill:#F4F7FA;" d="M2600.38,1947.199l246.089-0.759L2600.38,1947.199z"/>
						
							<linearGradient id="SVGID_00000100356130802224439350000005831595430832861118_" gradientUnits="userSpaceOnUse" x1="2598.384" y1="1965.8079" x2="2843.9253" y2="1965.8079" gradientTransform="matrix(1.0022 -0.0111 0.0024 1 -8.4346 11.1876)">
							<stop  offset="0" style="stop-color:#FF9085"/>
							<stop  offset="1" style="stop-color:#FB6FBB"/>
						</linearGradient>
						<polygon style="fill:url(#SVGID_00000100356130802224439350000005831595430832861118_);" points="2846.477,1950.133 
							2600.391,1950.952 2600.373,1943.449 2846.459,1942.75 						"/>
					</g>
				</g>
				<g>
					<path style="fill:#FEC045;" d="M2758.821,1988.061l-68.758,0.4c-17.551,0.102-31.976-14.443-32.02-32.322l-0.32-131.273
						c-0.043-17.878,14.311-32.406,31.862-32.282l68.76,0.483c17.354,0.122,31.558,14.723,31.601,32.448l0.317,130.138
						C2790.307,1973.376,2776.174,1987.96,2758.821,1988.061z"/>
					
						<linearGradient id="SVGID_00000058572196689454500770000011150739748943195838_" gradientUnits="userSpaceOnUse" x1="2656.8152" y1="1892.1746" x2="2796.3401" y2="1892.1746" gradientTransform="matrix(1 -0.0024 0.0024 1 -7.1572 4.8077)">
						<stop  offset="0" style="stop-color:#FF9085"/>
						<stop  offset="1" style="stop-color:#FB6FBB"/>
					</linearGradient>
					<path style="fill:url(#SVGID_00000058572196689454500770000011150739748943195838_);" d="M2758.831,1991.772l-68.76,0.417
						c-19.621,0.119-35.661-16.048-35.709-36.038l-0.32-131.304c-0.049-19.99,15.913-36.137,35.534-35.994l68.763,0.5
						c19.396,0.141,35.178,16.371,35.226,36.179l0.317,130.106C2793.929,1975.446,2778.226,1991.656,2758.831,1991.772z
						 M2689.594,1796.312c-15.57-0.105-28.231,12.711-28.192,28.57l0.319,131.242c0.039,15.859,12.761,28.692,28.331,28.604
						l68.76-0.382c15.399-0.086,27.873-12.953,27.834-28.683l-0.317-130.168c-0.038-15.73-12.574-28.612-27.974-28.717
						L2689.594,1796.312z"/>
				</g>
			</g>
			<path style="fill:#FFFFFF;" d="M2460.651,2031.406l-528.803,1.288c-20.058,0.049-36.359-16.172-36.407-36.231l0,0
				c-0.049-20.058,16.172-36.358,36.23-36.407l528.803-1.288c20.059-0.049,36.359,16.172,36.408,36.23l0,0
				C2496.931,2015.056,2480.71,2031.357,2460.651,2031.406z"/>
			<path style="fill:#FFFFFF;" d="M2818.618,2404.913l-882.925,29.13c-21.61,0.713-39.223-14.967-39.272-35.026l0,0
				c-0.049-20.058,17.485-36.797,39.095-37.385l882.937-24.027c18.609-0.506,33.688,14.108,33.734,32.641l0,0
				C2852.233,2388.78,2837.227,2404.299,2818.618,2404.913z"/>
			<path style="fill:#FFFFFF;" d="M2818.943,2538.182l-882.9,39.236c-21.609,0.96-39.222-14.519-39.271-34.578l0,0
				c-0.049-20.058,17.484-36.998,39.094-37.834l882.913-34.132c18.609-0.719,33.687,13.723,33.733,32.256l0,0
				C2852.556,2521.663,2837.551,2537.354,2818.943,2538.182z"/>
			<path style="fill:#FFFFFF;" d="M2462.555,1917.446l-528.674,1.288c-21.295,0.052-38.669-16.166-38.718-36.225l0,0
				c-0.049-20.058,17.246-36.228,38.542-36.116l528.684,2.777c18.886,0.099,34.176,15.404,34.221,34.186l0,0
				C2496.656,1902.137,2481.441,1917.4,2462.555,1917.446z"/>
			<path style="fill:#FFFFFF;" d="M2462.294,1810.335l-528.69-5.089c-21.296-0.205-38.67-16.632-38.719-36.69l0,0
				c-0.049-20.059,17.246-36.019,38.543-35.651l528.699,9.154c18.887,0.327,34.177,15.816,34.222,34.598v0.001
				C2496.396,1795.438,2481.181,1810.517,2462.294,1810.335z"/>
			<g>
				
					<linearGradient id="SVGID_00000176001927374574996940000017625420554757982592_" gradientUnits="userSpaceOnUse" x1="1355.1859" y1="1805.6252" x2="1144.4108" y2="1522.396" gradientTransform="matrix(1 -0.0024 0.0024 1 -7.1572 4.8077)">
					<stop  offset="0" style="stop-color:#311944"/>
					<stop  offset="1" style="stop-color:#893976"/>
				</linearGradient>
				<path style="fill:url(#SVGID_00000176001927374574996940000017625420554757982592_);" d="M1337.778,2009.413
					c-8.533-4.231-91.367-46.942-101.004-132.229c-1.397-12.361-6.805-60.221,23.613-95.44
					c38.922-45.065,109.93-47.556,153.595-32.17c21.575,7.602,21.984,14.36,58.172,28.257c44.713,17.171,61.366,13.489,71.98,28.154
					c15.038,20.778,8.051,64.71-16.29,88.804c-54.557,54.003-171.722-15.415-203.527,27.223
					C1315.039,1934.45,1311.861,1958.515,1337.778,2009.413z"/>
				
					<linearGradient id="SVGID_00000140716505839576216060000016699945855857742223_" gradientUnits="userSpaceOnUse" x1="1124.554" y1="2776.719" x2="1370.229" y2="2424.585" gradientTransform="matrix(1 -0.0024 0.0024 1 -7.1572 4.8077)">
					<stop  offset="0.0036" style="stop-color:#E38DDD"/>
					<stop  offset="1" style="stop-color:#9571F6"/>
				</linearGradient>
				<path style="fill:url(#SVGID_00000140716505839576216060000016699945855857742223_);" d="M1037.945,2568.781
					c209.459-1.591,453.901-25.802,663.75-27.646c26.052-0.229,46.516-22.393,44.6-48.376
					c-7.015-95.132-37.59-298.321-180.128-342.176c-69.5-36.554-149.677-39.263-179.83-40.282
					c-46.14-1.559-119.975-3.175-201.522,37.148c-26.848,13.276-132.213,51.081-168.915,192.229
					c-17.605,67.708-25.451,123.407-23.525,185.328C993.14,2549.574,1013.366,2568.968,1037.945,2568.781z"/>
				
					<linearGradient id="SVGID_00000000944084834147196650000018067150686107562169_" gradientUnits="userSpaceOnUse" x1="1550.7911" y1="2189.8633" x2="1565.8491" y2="1788.7684" gradientTransform="matrix(0.9978 0.0665 -0.0665 0.9978 -53.8887 -38.7198)">
					<stop  offset="0" style="stop-color:#AB316D"/>
					<stop  offset="1" style="stop-color:#792D3D"/>
				</linearGradient>
				<path style="fill:url(#SVGID_00000000944084834147196650000018067150686107562169_);" d="M1306.392,1933.564
					c0,0,15.4,134.934,5.587,160.611c-9.821,25.69,24.391,60.156,90.267,72.748c65.618,12.543,9.891-134.415,9.891-134.415
					L1306.392,1933.564z"/>
				
					<linearGradient id="SVGID_00000015330350222649649170000012244192121918151553_" gradientUnits="userSpaceOnUse" x1="1155.6367" y1="1932.3679" x2="1146.8859" y2="2637.4216" gradientTransform="matrix(0.9959 -0.0901 0.0901 0.9959 51.5129 69.3002)">
					<stop  offset="0" style="stop-color:#AB316D"/>
					<stop  offset="1" style="stop-color:#792D3D"/>
				</linearGradient>
				<path style="fill:url(#SVGID_00000015330350222649649170000012244192121918151553_);" d="M1320.809,2010.396
					c0,0,41.068,64.949,119.14,59.252c77.677-5.667,50.372-186.395,30.512-196.598c-23.063-11.849-54.505,3.647-106.765-4.465
					c-22.057-3.424-43.099-29.247-51.614,0.52c-9.695,33.887-0.303,85.054-0.303,85.054s-24.88-20.992-36.537,1.578
					C1265.827,1973.96,1282.922,1997.112,1320.809,2010.396z"/>
			</g>
			<path style="opacity:0.3;fill:#F4F7FA;" d="M2927.998,1443.312L741.55,1357.978c58.566,192.07,163.873,422.623,362.542,486.298
				c169.279,54.256,247.135-63.67,407.604-11.484c283.732,92.272,206.396,514.946,528.807,669.45
				c162.859,78.044,248.479,16.627,431.734,116.618c123.753,67.525,201.234,182.195,250.907,297.141l208.409-12.864
				c31.206-1.928,56.567-32.811,56.48-68.638l-3.226-1323.837C2984.721,1474.834,2959.212,1444.529,2927.998,1443.312z"/>
		</g>
		<g>
			<g>
				<g>
					<g>
						<g>
							
								<linearGradient id="SVGID_00000086668537518962501620000011199057964040436666_" gradientUnits="userSpaceOnUse" x1="303.2704" y1="3100.269" x2="359.5551" y2="3100.269" gradientTransform="matrix(-0.9988 -0.0492 -0.0492 0.9988 2589.512 18.2752)">
								<stop  offset="0" style="stop-color:#AA80F9"/>
								<stop  offset="0.9964" style="stop-color:#6165D7"/>
							</linearGradient>
							<path style="fill:url(#SVGID_00000086668537518962501620000011199057964040436666_);" d="M2090.016,3075.131
								c-3.815,5.639-8.448,14.051-11.052,25.018c-1.141,4.806-1.688,9.242-1.904,13.127c2.407,5.122,14.569,23.321,33.763,30.371
								c11.873,4.362,33.385-2.889,13.097-20.51c-20.288-17.619-23.117-21.536-10.823-56.439c3.163-8.98,3.028-12.47,1.678-13.35
								C2111.622,3051.292,2099.716,3063.948,2090.016,3075.131z"/>
							
								<linearGradient id="SVGID_00000008867523443163911790000013216476568473846921_" gradientUnits="userSpaceOnUse" x1="410.7371" y1="3116.6394" x2="467.0234" y2="3116.6394" gradientTransform="matrix(-0.9988 -0.0492 -0.0492 0.9988 2589.512 18.2752)">
								<stop  offset="0" style="stop-color:#AA80F9"/>
								<stop  offset="0.9964" style="stop-color:#6165D7"/>
							</linearGradient>
							<path style="fill:url(#SVGID_00000008867523443163911790000013216476568473846921_);" d="M1981.873,3086.194
								c-3.815,5.639-8.448,14.052-11.053,25.019c-1.141,4.805-1.688,9.241-1.905,13.127c2.409,5.121,14.571,23.321,33.765,30.371
								c11.873,4.361,33.385-2.891,13.097-20.51c-20.289-17.619-23.118-21.536-10.824-56.441c3.164-8.98,3.029-12.469,1.679-13.35
								C2003.478,3062.354,1991.572,3075.011,1981.873,3086.194z"/>
							
								<linearGradient id="SVGID_00000003078618557325971850000000574041851335342781_" gradientUnits="userSpaceOnUse" x1="211.248" y1="2695.5454" x2="553.4285" y2="2695.5454" gradientTransform="matrix(-0.9988 -0.0492 -0.0492 0.9988 2589.512 18.2752)">
								<stop  offset="0" style="stop-color:#444B8C"/>
								<stop  offset="0.9964" style="stop-color:#26264F"/>
							</linearGradient>
							<path style="fill:url(#SVGID_00000003078618557325971850000000574041851335342781_);" d="M1941.477,2335.573
								c-8.987,45.618-17.974,91.238-26.96,136.857c15.115,43.906,28.951,91.66,40.326,143.122
								c41.086,185.89,34.896,351.642,17.152,477.703c9.628,5.308,19.256,10.613,28.885,15.922
								c29.21-66.201,65.923-164.929,86.341-289.063c24.124-146.655,14.556-262.207,21.338-262.397
								c6.501-0.18,21.327,105.799,17.539,226.167c-4.006,127.242-27.577,231.297-48.38,302.503
								c12.12,2.663,24.239,5.326,36.359,7.989c49.063-90.761,100.732-215.269,122.956-367.935
								c15.432-106.02,34.146-246.92-32.307-395.009c-6.636-14.788-30.39-47.901-34.783-56.037
								C2087.931,2288.406,2023.489,2322.564,1941.477,2335.573z"/>
							
								<linearGradient id="SVGID_00000140008197740344663880000010854694715717932459_" gradientUnits="userSpaceOnUse" x1="280.9197" y1="2738.3994" x2="611.4527" y2="2738.3994" gradientTransform="matrix(-0.9974 0.0714 0.0714 0.9974 2344.895 -78.4836)">
								<stop  offset="0" style="stop-color:#444B8C"/>
								<stop  offset="0.9964" style="stop-color:#26264F"/>
							</linearGradient>
							<path style="opacity:0.25;fill:url(#SVGID_00000140008197740344663880000010854694715717932459_);" d="M1954.843,2615.552
								c-11.375-51.463-25.211-99.216-40.326-143.123c8.986-45.619,17.973-91.238,26.96-136.857
								c82.011-13.009,146.453-47.167,228.465-60.176c4.393,8.135,28.147,41.248,34.783,56.036
								c22.401,49.922,35.097,99.018,41.531,146.244c-157.652-6.731-204.335,24.661-217.861,54.532
								c-21.532,47.554,37.749,98.352,13.13,195.193c-7.404,29.125-17.531,43.271-19.831,79.976
								c-3.021,48.168,12.567,53.343,13.473,102.468c0.993,53.75-16.739,97.901-31.289,134.133
								c-9.046,22.525-18.317,40.536-25.216,52.949c-2.222-1.224-4.443-2.449-6.667-3.675
								C1989.738,2967.194,1995.928,2801.442,1954.843,2615.552z"/>
						</g>
						
							<linearGradient id="SVGID_00000124861911425995209690000013446186422110801555_" gradientUnits="userSpaceOnUse" x1="924.7859" y1="2097.8342" x2="282.3189" y2="1759.2645" gradientTransform="matrix(-1 0.0024 0.0024 1 2483.4697 -1.72)">
							<stop  offset="0" style="stop-color:#311944"/>
							<stop  offset="1" style="stop-color:#6B3976"/>
						</linearGradient>
						<path style="fill:url(#SVGID_00000124861911425995209690000013446186422110801555_);" d="M2079.366,1701.145
							c-5.713,6.218,0.851,15.999-0.98,49.005c-0.836,15.097-3.017,27.605-4.936,36.454c-1.104,8.068-2.321,15.53-3.624,22.099
							c-0.956,4.82-1.837,8.573-2.946,12.55c-2.054,7.377-4.663,14.635-7.753,21.572c-0.204,0.459-0.021,0.991,0.41,1.232
							c0.026,0.014,0.052,0.027,0.079,0.039c0.486,0.217,1.054-0.002,1.27-0.488c3.129-7.023,5.77-14.37,7.851-21.837
							c1.123-4.027,2.014-7.824,2.98-12.693c0.686-3.463,1.347-7.187,1.983-11.093c0.027,10.465-0.91,21.927-6.136,36.829
							c-15.865,45.232,17.034,79.389,45.273,83.485c32.565,4.724,57.359-18.953,65.074-26.741
							c31.094-31.392,42.051-86.568,20.18-129.944C2169.439,1704.791,2093.369,1685.907,2079.366,1701.145z"/>
						
							<linearGradient id="SVGID_00000166657785174061732430000011590897356415242420_" gradientUnits="userSpaceOnUse" x1="917.4562" y1="2111.7568" x2="274.9865" y2="1773.1858" gradientTransform="matrix(-1 0.0024 0.0024 1 2483.4697 -1.72)">
							<stop  offset="0" style="stop-color:#311944"/>
							<stop  offset="1" style="stop-color:#6B3976"/>
						</linearGradient>
						<path style="fill:url(#SVGID_00000166657785174061732430000011590897356415242420_);" d="M2157.561,1754.147
							c-0.875-5.324-5.067-27.094-23.067-42.298c-34.154-28.845-95.012-14.628-131.73,11.558
							c-38.421,27.4-25.913,50.31-64.079,81.189c-41.455,33.539-66.244,14.553-122.26,45.336
							c-22.033,12.107-81.413,44.738-91.157,104.026c-8.422,51.23,22.817,106.547,65.417,130.978
							c72.928,41.827,174.737-9.396,225.53-60.834c48.717-49.334,20.843-65.437,92.875-162.948
							C2135.133,1825.895,2164.101,1793.929,2157.561,1754.147z"/>
						<path style="fill:#EFEFEF;" d="M2197.391,1910.087c25.043,31.062,29.12,65.782,29.783,81.18
							c0.324,7.515,0.008,14.002-0.866,20.112c-5.209,36.39-18.402,59.686-24.886,74.097c-8.3,18.445-4.58,50.901,3.196,115.05
							c5.171,42.656,10.263,69.725,20.137,126.018c4.992,28.46,11.963,68.7,20.117,117.515c-81.456-14.488-146-11.758-189.823-6.617
							c-62.626,7.348-94.297,20.966-185.491,27.363c-44.703,3.134-85.542,3.259-131.761-12.427
							c-9.853-3.347-81.467-27.651-80.883-59.295c0.068-3.727,1.131-7.199,29.652-38.317c36.466-39.786,43.816-44.02,50.878-46.867
							c21.001-8.472,24.983,1.143,45.31-7.194c27.139-11.134,26.118-30.768,52.302-44.036c24.526-12.43,36.286-0.711,53.804-8.63
							c28.501-12.884,36.416-61.548,36.586-163.72c0.083-49.869-1.674-115.56-8.96-193.089
							c16.812-9.714,42.315-21.574,74.919-29.878c34.925-8.895,77.789-12.879,122.55-0.406
							C2136.262,1867.161,2171.013,1877.363,2197.391,1910.087z"/>
						
							<linearGradient id="SVGID_00000002366653276957403880000011382662829381332896_" gradientUnits="userSpaceOnUse" x1="2773.7891" y1="1862.1631" x2="2784.0374" y2="1589.182" gradientTransform="matrix(0.9964 0.0843 -0.0843 0.9964 -518.9379 -75.8636)">
							<stop  offset="0" style="stop-color:#FFC444"/>
							<stop  offset="0.9964" style="stop-color:#F36F56"/>
						</linearGradient>
						<path style="fill:url(#SVGID_00000002366653276957403880000011382662829381332896_);" d="M2098.373,1802.25
							c6.353,17.034,11.049,38.013,0.87,50.736c-6.202,7.752-15.544,11.475-24.75,14.942c-21.755,8.195-30.945,3.044-35.666,8.872
							c-10.389,12.83,9.789,67.845,50.893,76.603c40.906,8.715,82.901-32.566,78.601-52.232
							c-3.88-17.745-45.147-16.479-50.229-38.923c-2.561-11.298,5.376-22.756,12.095-30.379l4.829,0.919L2098.373,1802.25z"/>
						
							<linearGradient id="SVGID_00000029724438383954535030000016956084560578144680_" gradientUnits="userSpaceOnUse" x1="398.0361" y1="1976.1903" x2="406.429" y2="1752.6329" gradientTransform="matrix(-1 0.0024 0.0024 1 2483.4697 -1.72)">
							<stop  offset="0" style="stop-color:#FFC444"/>
							<stop  offset="0.9964" style="stop-color:#F36F56"/>
						</linearGradient>
						<path style="opacity:0.4;fill:url(#SVGID_00000029724438383954535030000016956084560578144680_);" d="M2038.827,1876.8
							c4.721-5.829,13.911-0.678,35.666-8.873c9.206-3.467,18.549-7.191,24.75-14.943c10.179-12.723,5.482-33.701-0.87-50.735
							l36.642,30.538l-4.829-0.918c-5.332,6.05-11.345,14.522-12.354,23.408c-3.059,1.688-5.693,3.613-7.617,5.546
							c4.242,12.251,5.06,22.54,5.104,29.144c0.07,10.3,0.122,17.949-4.973,24.656c-5.557,7.317-13.982,9.227-21.347,10.896
							c-16.366,3.708-30.979,0.448-40.461-2.863C2036.802,1904.51,2032.993,1884.004,2038.827,1876.8z"/>
						
							<linearGradient id="SVGID_00000013163403353226984740000017177090543366081967_" gradientUnits="userSpaceOnUse" x1="2501.2532" y1="1757.3453" x2="2498.4895" y2="1980.0161" gradientTransform="matrix(1 -0.0065 0.0068 1.043 -385.377 -36.8331)">
							<stop  offset="0" style="stop-color:#FFC444"/>
							<stop  offset="0.9964" style="stop-color:#F36F56"/>
						</linearGradient>
						<path style="fill:url(#SVGID_00000013163403353226984740000017177090543366081967_);" d="M2108.875,1819.659
							c0,0,2.129,20.877,22.807,20.935c25.479,0.071,28.142-67.163,21.937-70.989c-7.195-4.438-13.454,6.488-30.184,2.724
							c-7.046-1.585-13.154-10.625-16.699-0.858c-4.033,11.113-0.555,30.759-0.555,30.759s-6.066-4.976-6.98,1.032
							C2098.005,1811.126,2103.913,1816.023,2108.875,1819.659z"/>
						
							<linearGradient id="SVGID_00000128460901099194249920000018065043419016644763_" gradientUnits="userSpaceOnUse" x1="938.9238" y1="2071.0051" x2="296.461" y2="1732.4375" gradientTransform="matrix(-1 0.0024 0.0024 1 2483.4697 -1.72)">
							<stop  offset="0" style="stop-color:#311944"/>
							<stop  offset="1" style="stop-color:#6B3976"/>
						</linearGradient>
						<path style="fill:url(#SVGID_00000128460901099194249920000018065043419016644763_);" d="M2149,1746.512
							c8.105,8.226,12.604,24.212,7.019,32.267c-8.023,11.572-31.863-0.431-41.566,13.724c-4.254,6.206-3.986,14.805-6.2,14.67
							c-1.833-0.111-2.932-6.067-3.999-10.966c-5.887-27.011-12.631-30.028-10.597-37.771
							C2097.79,1742.698,2132.356,1729.622,2149,1746.512z"/>
						
							<linearGradient id="SVGID_00000174580780769741693860000006696350722317221533_" gradientUnits="userSpaceOnUse" x1="2054.947" y1="2128.2986" x2="2323.7119" y2="2128.2986" gradientTransform="matrix(1 -0.0024 0.0024 1 -7.1572 4.8077)">
							<stop  offset="0" style="stop-color:#311944"/>
							<stop  offset="0.4695" style="stop-color:#6B3976"/>
						</linearGradient>
						<path style="fill:url(#SVGID_00000174580780769741693860000006696350722317221533_);" d="M2139.913,2020.941l169.021-0.412
							c8.879-0.022,14.931,8.756,11.55,16.756l-79.519,188.201c-1.918,4.539-6.453,7.507-11.491,7.519l-162.702,2.167
							c-8.76,0.021-16.054-10.305-12.904-18.268l74.449-188.189C2130.166,2024.041,2134.772,2020.953,2139.913,2020.941z"/>
						
							<linearGradient id="SVGID_00000079469237456765702120000016937034767933252495_" gradientUnits="userSpaceOnUse" x1="2094.8184" y1="2327.1436" x2="2204.4529" y2="2099.7961" gradientTransform="matrix(1 -0.0024 0.0024 1 -7.1572 4.8077)">
							<stop  offset="0" style="stop-color:#311944"/>
							<stop  offset="0.4695" style="stop-color:#6B3976"/>
						</linearGradient>
						<path style="fill:url(#SVGID_00000079469237456765702120000016937034767933252495_);" d="M2144.604,2022.7l164.656-0.401
							c8.651-0.021,14.545,8.757,11.254,16.756l-77.455,188.197c-1.868,4.539-6.286,7.506-11.194,7.518l-159.717,0.389
							c-8.533,0.021-14.424-8.538-11.355-16.501l72.515-188.185C2135.108,2025.8,2139.595,2022.712,2144.604,2022.7z"/>
						
							<linearGradient id="SVGID_00000117654728557102676700000008115814622043148716_" gradientUnits="userSpaceOnUse" x1="2221.6306" y1="2005.0675" x2="2246.1108" y2="2050.3391" gradientTransform="matrix(1 -0.0024 0.0024 1 -7.1572 4.8077)">
							<stop  offset="0" style="stop-color:#311944"/>
							<stop  offset="1" style="stop-color:#6B3976"/>
						</linearGradient>
						<path style="fill:url(#SVGID_00000117654728557102676700000008115814622043148716_);" d="M2193.959,2021.942
							c0.778-2.692,3.239-4.548,6.042-4.554l65.353-0.159c2.064-0.005,3.664,1.802,3.408,3.85l-3.502,10.486
							c-0.694,2.077-2.651,3.465-4.841,3.434l-63.358-0.902c-3.316-0.047-5.68-3.237-4.758-6.422L2193.959,2021.942z"/>
						
							<linearGradient id="SVGID_00000086667375165744924840000015207968875010243002_" gradientUnits="userSpaceOnUse" x1="2227.6531" y1="2001.8877" x2="2251.5742" y2="2046.1251" gradientTransform="matrix(1 -0.0024 0.0024 1 -7.1572 4.8077)">
							<stop  offset="0" style="stop-color:#311944"/>
							<stop  offset="1" style="stop-color:#6B3976"/>
						</linearGradient>
						<path style="fill:url(#SVGID_00000086667375165744924840000015207968875010243002_);" d="M2217.411,2023.912l5.855-14.474
							c1.03-2.546,3.5-4.215,6.246-4.222l15.85-0.039c2.528-0.006,4.299,2.494,3.454,4.877l-5.134,14.485L2217.411,2023.912z"/>
						
							<linearGradient id="SVGID_00000095301821307569562620000006000628062640327062_" gradientUnits="userSpaceOnUse" x1="1907.109" y1="1951.9766" x2="1964.4246" y2="1951.9766" gradientTransform="matrix(0.9889 0.1485 -0.1485 0.9889 483.7622 -99.7666)">
							<stop  offset="0" style="stop-color:#FFC444"/>
							<stop  offset="0.9964" style="stop-color:#F36F56"/>
						</linearGradient>
						<path style="fill:url(#SVGID_00000095301821307569562620000006000628062640327062_);" d="M2077.851,2126.95l23.5-26.913
							c3.166-3.626,7.961-5.387,12.721-4.672l25.896,3.889c0,0-3.663,12.125-16.69,13.033
							c-13.027,0.908-17.031,16.063-25.888,21.178c-8.856,5.115-8.856,5.115-8.856,5.115L2077.851,2126.95z"/>
						<path style="fill:#FFFFFF;" d="M1925.558,1903.748c23.716-18.13,38.628-19.561,48.827-17.117
							c30.542,7.325,50.202,56.967,48.399,98.328c-3.411,78.236-83.257,118.431-71.186,141.819
							c5.571,10.792,30.661,17.902,125.873-6.68c5.682,6.713,11.364,13.429,17.047,20.143
							c-7.873,11.979-39.859,57.597-101.275,73.549c-48.109,12.496-114.496,6.84-150.405-33.629
							C1776.41,2105.294,1855.283,1957.473,1925.558,1903.748z"/>
						
							<linearGradient id="SVGID_00000137124975388976055260000015923871230339358653_" gradientUnits="userSpaceOnUse" x1="861.8675" y1="2051.7954" x2="297.68" y2="1754.4777" gradientTransform="matrix(-1 0.0024 0.0024 1 2483.4697 -1.72)">
							<stop  offset="0" style="stop-color:#311944"/>
							<stop  offset="1" style="stop-color:#6B3976"/>
						</linearGradient>
						<path style="fill:url(#SVGID_00000137124975388976055260000015923871230339358653_);" d="M2106.736,1771.471
							c5.653,6.149-6.663,26.579-31.528,67.192c-15.303,24.998-22.956,37.495-27.88,42.906
							c-26.518,29.118-71.32,51.603-116.694,49.194c-31.137-1.659-35.724-13.612-61.233-9.292
							c-38.48,6.518-27.457-68.342-47.224-27.589c-1.181,2.434,7.927,21.356,57.763-13.59
							c40.778-28.596,51.905-20.029,116.005-59.65c4.65-2.875,24.336-15.123,51.978-28.922
							C2080.42,1775.503,2101.113,1765.356,2106.736,1771.471z"/>
					</g>
					<g>
						<path style="fill:#FFFFFF;" d="M2339.575,1942.792l81.646-7.903c5.985-0.579,11.171,4.118,11.186,10.13l0.092,37.595
							c0.012,5.055-3.68,9.358-8.68,10.113l-81.634,12.327c-6.161,0.93-11.711-3.832-11.726-10.064l-0.103-42.019
							C2330.342,1947.709,2334.336,1943.299,2339.575,1942.792z"/>
						
							<linearGradient id="SVGID_00000026131196150661810920000000536174153355663755_" gradientUnits="userSpaceOnUse" x1="2399.3345" y1="1932.8359" x2="2379.1104" y2="2058.2266" gradientTransform="matrix(1 -0.0024 0.0024 1 -7.1572 4.8077)">
							<stop  offset="0" style="stop-color:#AB316D"/>
							<stop  offset="1" style="stop-color:#792D3D"/>
						</linearGradient>
						<path style="fill:url(#SVGID_00000026131196150661810920000000536174153355663755_);" d="M2381.555,2020.712l-4.622-8.366
							c0,0-15.129-9.642-4.056-27.861c11.072-18.217,8.478-45.736,8.478-45.736l-12.683-3.776c0,0,21.188-18.238,39.471,6.982
							c10.889,15.02-5.025,49.258-6.932,58.631c-1.906,9.374,8.149,26.416,8.149,26.416L2381.555,2020.712z"/>
						
							<linearGradient id="SVGID_00000142857472610629904330000017297764946897118103_" gradientUnits="userSpaceOnUse" x1="2681.0781" y1="2117.6267" x2="3015.3142" y2="2117.6267" gradientTransform="matrix(1 -0.0024 0.0024 1 -7.1572 4.8077)">
							<stop  offset="0" style="stop-color:#AA80F9"/>
							<stop  offset="0.9964" style="stop-color:#6165D7"/>
						</linearGradient>
						<path style="fill:url(#SVGID_00000142857472610629904330000017297764946897118103_);" d="M2876.733,1926.483
							c6.854,2.572,111.407,43.857,133.142,152.821c1.756,8.803,18.765,102.425-44.592,168.747
							c-71.045,74.369-208.2,72.865-262.791,10.97c-12.731-14.434-19.468-30.449-23.251-43.91l0,0l14.251-38.143
							c17.45-21.172,41.269-26.238,53.988-29.405c31.356-7.809,55.078,6.109,73.01-9.065c9.923-8.395,11.868-20.448,13.606-31.215
							c5.92-36.673-14.825-59.187-16.386-81.789c-1.167-16.896-7.172-53.911,14.826-78.111
							C2846.466,1932.059,2865.803,1927.848,2876.733,1926.483z"/>
						
							<linearGradient id="SVGID_00000096016925210294621910000017339663492739456690_" gradientUnits="userSpaceOnUse" x1="2572.0845" y1="3309.5864" x2="2614.8936" y2="3347.6653" gradientTransform="matrix(0.9899 -0.1424 0.1424 0.9899 -109.0843 212.1056)">
							<stop  offset="0" style="stop-color:#444B8C"/>
							<stop  offset="0.9964" style="stop-color:#26264F"/>
						</linearGradient>
						<path style="fill:url(#SVGID_00000096016925210294621910000017339663492739456690_);" d="M2920.392,3141.341
							c1.202-6.713,22.861-12.842,33.614-3.878c5.34,4.449,9.031,13.489,5.958,17.583c-1.117,1.49,3.482,4.093-0.919,4.154
							C2944.445,3159.406,2919.196,3148.013,2920.392,3141.341z"/>
						
							<linearGradient id="SVGID_00000106142506785111459900000000071613493817708219_" gradientUnits="userSpaceOnUse" x1="1688.0907" y1="3347.7368" x2="1688.0907" y2="3273.1599" gradientTransform="matrix(0.9899 -0.1424 0.1424 0.9899 806.8012 80.3575)">
							<stop  offset="0" style="stop-color:#FFC444"/>
							<stop  offset="0.9964" style="stop-color:#F36F56"/>
						</linearGradient>
						<path style="fill:url(#SVGID_00000106142506785111459900000000071613493817708219_);" d="M2943.115,3143.728l22.282-3.205
							c-10.357-12.408-8.542-52.007-8.542-52.007l-23.692,5.349c0,0,2.728,10.862,7.361,26.881
							C2942.111,3126.23,2942.834,3134.817,2943.115,3143.728z"/>
						
							<linearGradient id="SVGID_00000049192748438353358490000010027102221260413333_" gradientUnits="userSpaceOnUse" x1="2576.3894" y1="3304.7493" x2="2619.1973" y2="3342.8271" gradientTransform="matrix(0.9899 -0.1424 0.1424 0.9899 -109.0843 212.1056)">
							<stop  offset="0" style="stop-color:#444B8C"/>
							<stop  offset="0.9964" style="stop-color:#26264F"/>
						</linearGradient>
						<path style="fill:url(#SVGID_00000049192748438353358490000010027102221260413333_);" d="M2941.131,3140.988
							c0,0,26.821-6.249,29.737-0.933c2.916,5.317,5.204,19.563-11.823,19.145
							C2942.018,3158.782,2939.63,3145.505,2941.131,3140.988z"/>
						
							<linearGradient id="SVGID_00000155862039038997722720000017235365175049175986_" gradientUnits="userSpaceOnUse" x1="2604.9556" y1="3147.8535" x2="2647.7678" y2="3185.9353" gradientTransform="matrix(1 -0.0024 0.0024 1 -7.1572 4.8077)">
							<stop  offset="0" style="stop-color:#444B8C"/>
							<stop  offset="0.9964" style="stop-color:#26264F"/>
						</linearGradient>
						<path style="fill:url(#SVGID_00000155862039038997722720000017235365175049175986_);" d="M2614.61,3167.252
							c2.129-6.479,24.433-9.516,33.827,0.864c4.662,5.153,7.054,14.621,3.437,18.243c-1.315,1.32,2.875,4.541-1.491,3.986
							C2635.898,3188.506,2612.492,3173.691,2614.61,3167.252z"/>
						
							<linearGradient id="SVGID_00000104671981294702917530000008747989116758963072_" gradientUnits="userSpaceOnUse" x1="1720.8831" y1="3186.0444" x2="1720.8831" y2="3111.4604" gradientTransform="matrix(1 -0.0024 0.0024 1 918.1529 2.5534)">
							<stop  offset="0" style="stop-color:#FFC444"/>
							<stop  offset="0.9964" style="stop-color:#F36F56"/>
						</linearGradient>
						<path style="fill:url(#SVGID_00000104671981294702917530000008747989116758963072_);" d="M2636.775,3172.796l22.51-0.055
							c-8.518-13.736-1.177-52.69-1.177-52.69l-24.207,1.98c0,0,1.18,11.136,3.526,27.647
							C2638.23,3155.33,2637.744,3163.934,2636.775,3172.796z"/>
						
							<linearGradient id="SVGID_00000105397401462193819950000000565702762993127339_" gradientUnits="userSpaceOnUse" x1="-366.9162" y1="3220.752" x2="-646.0837" y2="2093.616" gradientTransform="matrix(-1 0.0024 0.0024 1 2268.5901 -1.1965)">
							<stop  offset="0" style="stop-color:#444B8C"/>
							<stop  offset="0.9964" style="stop-color:#26264F"/>
						</linearGradient>
						<path style="fill:url(#SVGID_00000105397401462193819950000000565702762993127339_);" d="M2576.36,2321.644
							c-10.344,34.462-25.102,90.079-34.518,159.836c-26.859,198.969,31.274,205.172,20.958,425.608
							c-3.293,70.364,61.518,232.44,67.204,236.009c2.749,0.259,5.731,0.431,8.91,0.327c5.602-0.183,13.5-1.06,22.678-3.837
							c10.199-1.782,46.747-101.519,38.075-160.744c-6.137-41.918-4.497-86.924-1.218-176.937
							c0.531-14.585,37.188-283.824,37.188-283.824l0,0c11.593,99.596,24.852,184.213,36.328,249.814
							c36.87,210.766,155.393,338.102,161.564,340.134c1.219,0.486,12.322,4.489,21.376-1.51c4.03-2.67,5.395-6.107,5.395-6.107
							c3.156-2.484-1.446-210.512-37.883-366.992c-52.889-227.127-30.229-280.358-47.058-381.824
							C2860.8,2263.799,2576.36,2321.644,2576.36,2321.644z"/>
						
							<linearGradient id="SVGID_00000165232345022814234160000018290549025996583853_" gradientUnits="userSpaceOnUse" x1="2827.1208" y1="2060.269" x2="2533.0403" y2="2360.4128" gradientTransform="matrix(1 -0.0024 0.0024 1 -7.1572 4.8077)">
							<stop  offset="0" style="stop-color:#AA80F9"/>
							<stop  offset="0.9964" style="stop-color:#6165D7"/>
						</linearGradient>
						<path style="fill:url(#SVGID_00000165232345022814234160000018290549025996583853_);" d="M2786.747,1908.964
							c-34.749-0.936-110.926-9.097-170.938,18.7c-0.933,0.432,20.66,13.462,16.236,18.672c-4.108,4.836-18.197,21.768-30.95,44.641
							c-9.239,16.566-17.566,35.87-25.945,64.632c-14.779,50.723-18.95,93.893-20.333,112.702
							c-7.783,105.771,0.308,154.541,7.625,187.701c31.454,16.06,112.477,44.738,208.896,30.156
							c44.032-6.66,79.249-21.404,104.022-34.548c-25.212-75.719-5.676-116.317,3.497-153.715
							c13.079-53.326,13.302-49.299,24.075-91.66c17.775-69.898,20.545-141.285,8.18-155.862
							C2877.769,1911.083,2817.86,1909.805,2786.747,1908.964z"/>
						
							<linearGradient id="SVGID_00000106146829466108954930000003373874346496634784_" gradientUnits="userSpaceOnUse" x1="2609.26" y1="3143.0154" x2="2652.0713" y2="3181.0964" gradientTransform="matrix(1 -0.0024 0.0024 1 -7.1572 4.8077)">
							<stop  offset="0" style="stop-color:#444B8C"/>
							<stop  offset="0.9964" style="stop-color:#26264F"/>
						</linearGradient>
						<path style="fill:url(#SVGID_00000106146829466108954930000003373874346496634784_);" d="M2635.194,3169.804
							c0,0,27.431-2.433,29.574,3.24c2.142,5.67,2.415,20.099-14.386,17.302C2633.581,3187.548,2633.075,3174.067,2635.194,3169.804
							z"/>
						<g>
							
								<linearGradient id="SVGID_00000047033505810555619570000004735597287935470493_" gradientUnits="userSpaceOnUse" x1="2766.2007" y1="1864.7915" x2="2720.0928" y2="2132.6555" gradientTransform="matrix(1 -0.0024 0.0024 1 -7.1572 4.8077)">
								<stop  offset="0" style="stop-color:#AB316D"/>
								<stop  offset="1" style="stop-color:#792D3D"/>
							</linearGradient>
							<path style="fill:url(#SVGID_00000047033505810555619570000004735597287935470493_);" d="M2688.862,1869.366
								c-10.807-18.171-6.062-38.97-4.992-43.464c4.481-18.818,6.157-21.674,9.638-25.662l4.923-5.231c0,0,0.305-0.23,0.63-0.454
								c3.426-2.368,16.232-6.237,18.999-6.382c8.836-0.465,26.898,31.183,37.315,79.995c0.841,1.74,1.672,3.5,2.498,5.279
								c3.773,8.131,7.153,16.164,10.184,24.064c1.975,5.15,6.652,8.778,12.143,9.293c51.591,4.841,59.062,11.314,59.323,15.147
								c0.581,8.517-33.426,18.443-59.008,22.253c-55.794,8.308-113.203-6.273-112.967-16.681c0.092-4.042,8.919-9.2,44.407-14.746
								c7.779-1.216,13.144-8.5,12.023-16.294c-0.442-3.072-0.883-6.144-1.325-9.215
								C2718.806,1886.424,2696.822,1882.754,2688.862,1869.366z"/>
							
								<linearGradient id="SVGID_00000158719234116809966630000004829367718584699071_" gradientUnits="userSpaceOnUse" x1="2723.1091" y1="1756.2076" x2="2807.998" y2="2051.2981" gradientTransform="matrix(1 -0.0024 0.0024 1 -7.1572 4.8077)">
								<stop  offset="0" style="stop-color:#311944"/>
								<stop  offset="1" style="stop-color:#893976"/>
							</linearGradient>
							<path style="fill:url(#SVGID_00000158719234116809966630000004829367718584699071_);" d="M2677.432,1785.999
								c4.063,14.897,15.376,28.93,19.643,30.526c0.551,0.207,3.706,1.561,6.989,4.445c0.448,0.392,0.878,0.877,1.323,1.533
								c5.796,8.518-6.168,23.597-2.152,27.028c2.913,2.489,11.969-4.326,13.885-2.015c1.805,2.174-5.25,9.582-3.159,12.204
								c1.579,1.98,6.22-1.469,10.42,1.085c2.093,1.271,1.978,2.757,5.116,7.522c1.774,2.695,4.013,5.564,5.559,7.079
								c7.51,7.367,22.966,6.637,24.831,2.378c0.518-1.187-0.373-1.826-0.457-5.318c0,0-0.077-3.236,1.09-7.316
								c1.669-5.829,7.99-11.378,13.919-18.653c10.978-13.472,12.429-22.827,12.78-25.95c0.125-1.112,0.166-1.938,0.195-2.533
								c0.583-11.943-3.747-28.091-11.36-36.689c-12.754-14.402-29.3-1.48-49.019-13.845
								c-22.751-14.264-19.244-43.078-29.585-43.372C2686.052,1723.783,2669.918,1758.453,2677.432,1785.999z"/>
							
								<linearGradient id="SVGID_00000062180367480894667100000011793115202760972687_" gradientUnits="userSpaceOnUse" x1="2656.7908" y1="1781.7222" x2="2888.6409" y2="2073.4192" gradientTransform="matrix(1 -0.0024 0.0024 1 -7.1572 4.8077)">
								<stop  offset="0" style="stop-color:#AB316D"/>
								<stop  offset="1" style="stop-color:#792D3D"/>
							</linearGradient>
							<path style="fill:url(#SVGID_00000062180367480894667100000011793115202760972687_);" d="M2707.653,1844.584
								c2.303-6.006,9.995-3.016,11.781,3.471c1.787,6.486-2.69,14.936-9.142,15.297
								C2703.838,1863.713,2704.554,1852.666,2707.653,1844.584z"/>
						</g>
						<path style="fill:#313364;" d="M2864.173,2303.513c-0.415,0-0.772-0.309-0.817-0.73c-4.239-37.318,3.406-64.373,10.151-88.241
							c1.647-5.828,3.203-11.331,4.551-16.831c7.429-30.291,10.688-41.991,14.135-54.38c2.242-8.047,4.557-16.371,8.144-30.278
							c0.113-0.438,0.553-0.695,1.003-0.592c0.441,0.113,0.704,0.563,0.592,1.003c-3.589,13.923-5.908,22.253-8.153,30.31
							c-3.445,12.373-6.699,24.064-14.119,54.329c-1.357,5.529-2.917,11.044-4.567,16.885
							c-6.703,23.723-14.303,50.611-10.102,87.607c0.051,0.454-0.273,0.859-0.724,0.91
							C2864.235,2303.51,2864.202,2303.513,2864.173,2303.513z"/>
						
							<linearGradient id="SVGID_00000111163172732197274170000003799093562136064937_" gradientUnits="userSpaceOnUse" x1="2841.2417" y1="2074.1118" x2="2547.1641" y2="2374.2524" gradientTransform="matrix(1 -0.0024 0.0024 1 -7.1572 4.8077)">
							<stop  offset="0" style="stop-color:#AA80F9"/>
							<stop  offset="0.9964" style="stop-color:#6165D7"/>
						</linearGradient>
						<path style="opacity:0.3;fill:url(#SVGID_00000111163172732197274170000003799093562136064937_);" d="M2719.358,2336.338
							c-6.59-12.009,1.034-24.908-9.217-49.497c-13.622-32.673-35.909-31.063-44.594-52.442
							c-18.225-44.868,64.533-89.876,51.175-149.693c-6.773-30.329-34.861-49.264-42.577-54.468
							c-32.551-21.945-63.742-16.406-81.868-21.801c-5.878,12.828-11.496,27.835-17.128,47.172
							c-14.779,50.724-18.95,93.894-20.333,112.7c-7.783,105.772,0.308,154.541,7.625,187.703
							c31.454,16.061,112.477,44.737,208.896,30.156c44.032-6.66,79.248-21.404,104.022-34.547c-1.29-3.873-2.388-7.597-3.451-11.29
							C2763.127,2363.842,2728.551,2353.094,2719.358,2336.338z"/>
						
							<linearGradient id="SVGID_00000150799032058353826110000015798283315699816835_" gradientUnits="userSpaceOnUse" x1="2673.1218" y1="1929.1857" x2="2379.0396" y2="2229.3313" gradientTransform="matrix(1 -0.0024 0.0024 1 -7.1572 4.8077)">
							<stop  offset="0" style="stop-color:#AA80F9"/>
							<stop  offset="0.9964" style="stop-color:#6165D7"/>
						</linearGradient>
						<path style="fill:url(#SVGID_00000150799032058353826110000015798283315699816835_);" d="M2421.76,2011.76
							c-4.268-1.509-13.739-4.218-25.579-2.117c-12.323,2.185-20.503,8.388-23.943,11.332c-5.429,17.288-12.192,46.932-7.156,82.729
							c2.04,14.502,12.363,87.88,72.047,121.096c72.607,40.408,156.098-13.218,162.663-17.577
							c86.059-57.138,102.685-180.017,69.765-243.959c-4.783-9.293-15.715-29.826-36.084-35.047
							c-28.081-7.199-60.412,18.212-76.703,41.621c-16.221,23.307-8.874,33.616-27.798,67.419
							c-11.764,21.015-25.192,44.997-43.675,46.953C2463.158,2086.55,2436.945,2056.947,2421.76,2011.76z"/>
					</g>
				</g>
			</g>
			<g>
				<g>
					<path style="fill:#D8DEE8;" d="M2521.06,1782.074c9.211,4.649,20.76,0.332,25.795-9.643c5.033-9.975,1.646-21.829-7.566-26.478
						c-0.478-0.241-0.964-0.443-1.453-0.637c1.696-5.516,2.971-11.075,3.823-16.635c0.527-0.003,1.056-0.013,1.594-0.063
						c10.495-0.961,18.802-10.627,18.556-21.59c-0.247-10.963-8.954-19.071-19.449-18.11c-0.548,0.05-1.087,0.138-1.622,0.235
						c-1.11-5.431-2.625-10.734-4.533-15.866c0.482-0.284,0.962-0.577,1.43-0.907c8.965-6.314,11.806-18.739,6.345-27.752
						c-5.461-9.013-17.156-11.201-26.12-4.888c-0.46,0.324-0.892,0.673-1.319,1.028c-3.557-3.913-7.456-7.537-11.674-10.843
						c0.295-0.486,0.583-0.978,0.844-1.495c5.034-9.975,11.617-20.873,2.333-25.377c-21.476-10.419-30.659-1.433-35.693,8.542
						c-0.26,0.516-0.485,1.041-0.701,1.567c-5.165-1.428-10.397-2.412-15.657-2.949c0.031-0.554,0.056-1.109,0.043-1.671
						c-0.246-10.963,2.992-16.903-7.545-17.082c-22.978-0.391-30.706,9.601-30.459,20.563c0.012,0.573,0.062,1.133,0.12,1.689
						c-5.262,1.514-10.429,3.446-15.456,5.778c-0.24-0.488-0.49-0.973-0.775-1.445c-5.461-9.013-17.156-11.202-26.122-4.888
						c-8.965,6.314-11.806,18.739-6.345,27.752c0.28,0.462,0.586,0.894,0.897,1.32c-3.967,3.987-7.681,8.315-11.112,12.956
						c-0.446-0.278-0.898-0.55-1.375-0.79c-9.212-4.649-20.76-0.332-25.794,9.643c-5.034,9.974-1.646,21.83,7.565,26.478
						c0.478,0.241,0.965,0.443,1.453,0.637c-1.696,5.517-2.971,11.075-3.822,16.635c-0.527,0.003-1.056,0.013-1.594,0.062
						c-10.495,0.962-18.802,10.628-18.556,21.591c0.247,10.963,8.955,19.07,19.449,18.109c0.548-0.05,1.086-0.138,1.622-0.234
						c1.11,5.431,2.625,10.734,4.533,15.866c-0.482,0.284-0.962,0.577-1.43,0.907c-8.965,6.313-11.807,18.739-6.345,27.752
						c5.46,9.013,23.477,13.163,32.442,6.849c0.46-0.323-5.43-2.634-5.003-2.989c3.557,3.913,7.456,7.537,11.674,10.843
						c-0.295,0.486-0.583,0.979-0.844,1.495c-5.034,9.974-1.647,21.829,7.565,26.478c9.212,4.649,20.76,0.332,25.794-9.643
						c0.261-0.516,0.485-1.041,0.702-1.567c5.164,1.428,10.397,2.412,15.657,2.949c-0.032,0.554-0.056,1.109-0.043,1.671
						c0.247,10.963,8.954,19.071,19.449,18.109c10.494-0.962,18.802-10.628,18.555-21.59c-0.012-0.573-0.062-1.133-0.12-1.689
						c5.262-1.514,10.429-3.445,15.456-5.779c0.24,0.488,0.49,0.974,0.776,1.444c5.461,9.013,17.155,11.203,26.121,4.888
						c8.965-6.314,11.806-18.739,6.346-27.752c-0.28-0.461-0.586-0.893-0.897-1.319c3.967-3.987,7.682-8.315,11.112-12.956
						C2520.131,1781.561,2520.583,1781.833,2521.06,1782.074z M2406.37,1783.808c-33.447-16.879-45.744-59.92-27.468-96.136
						c18.277-36.216,60.206-51.891,93.653-35.012c33.446,16.88,45.744,59.921,27.467,96.137
						C2481.746,1785.012,2439.817,1800.687,2406.37,1783.808z"/>
					<path style="fill:#D8DEE8;" d="M2543.252,1728.618c10.495-0.961,18.802-10.628,18.556-21.59
						c-0.247-10.963-8.954-19.071-19.449-18.11c-0.548,0.05-1.087,0.138-1.622,0.234c-1.11-5.431-2.625-10.734-4.533-15.866
						c0.482-0.283,0.962-0.577,1.43-0.907c8.965-6.313,20.039-21.543,13.682-29.948c-12.064-15.953-24.493-9.005-33.458-2.692
						c-0.46,0.324-0.892,0.672-1.319,1.027c-3.557-3.913-7.456-7.537-11.674-10.843c0.295-0.486,0.583-0.978,0.844-1.495
						c2.74-5.428,2.968-11.407,1.138-16.484c-8.637,15.288-17.158,30.64-25.524,46.075c26.697,19.463,35.276,57.926,18.698,90.776
						c-14.049,27.837-42.07,43.517-69.473,41.627c-1.215,3.173-2.406,6.362-3.708,9.505c-3.531,8.527-7.545,16.88-11.565,25.222
						c2.542,0.473,5.094,0.844,7.655,1.106c-0.032,0.554-0.056,1.109-0.043,1.671c0.247,10.963,6.926,20.261,25.947,19.206
						c10.522-0.584,12.304-11.724,12.057-22.687c-0.012-0.572-0.062-1.133-0.12-1.689c5.262-1.514,10.429-3.446,15.456-5.779
						c0.24,0.488,0.49,0.974,0.776,1.444c5.461,9.014,24.338,12.803,33.303,6.489c8.966-6.314,4.624-20.34-0.837-29.353
						c-0.28-0.461-0.586-0.893-0.897-1.319c3.967-3.987,7.682-8.315,11.112-12.956c0.446,0.279,0.898,0.55,1.375,0.79
						c9.211,4.649,20.76,0.332,25.795-9.643c5.033-9.974,1.646-21.83-7.566-26.478c-0.478-0.241-0.964-0.443-1.453-0.636
						c1.696-5.516,2.971-11.076,3.823-16.635C2542.186,1728.677,2542.715,1728.667,2543.252,1728.618z"/>
					<path style="fill:#FFFFFF;" d="M2530.958,1783.175c9.212,4.649,20.76,0.331,25.794-9.643c5.034-9.975,1.647-21.83-7.565-26.478
						c-0.477-0.241-0.965-0.443-1.453-0.637c1.696-5.517,2.971-11.075,3.822-16.635c0.527-0.003,1.057-0.013,1.594-0.063
						c10.495-0.961,18.802-10.627,18.556-21.59c-0.246-10.963-8.954-19.071-19.448-18.11c-0.549,0.051-1.088,0.138-1.623,0.235
						c-1.11-5.431-2.625-10.734-4.533-15.866c0.483-0.284,0.962-0.577,1.431-0.907c8.965-6.313,11.806-18.739,6.345-27.752
						c-5.46-9.013-17.156-11.202-26.121-4.888c-0.459,0.324-0.892,0.673-1.319,1.028c-3.557-3.913-7.456-7.537-11.673-10.843
						c0.295-0.486,0.583-0.979,0.844-1.495c5.034-9.975,1.647-21.83-7.565-26.479c-9.212-4.649-20.76-0.331-25.794,9.644
						c-0.26,0.516-0.485,1.041-0.701,1.567c-5.164-1.428-10.397-2.412-15.657-2.949c0.032-0.554,0.056-1.109,0.043-1.671
						c-0.247-10.963-8.954-19.071-19.449-18.109c-10.495,0.961-18.802,10.628-18.556,21.59c0.013,0.573,0.062,1.133,0.121,1.69
						c-5.262,1.514-10.428,3.445-15.456,5.778c-0.24-0.488-0.49-0.974-0.775-1.445c-5.461-9.014-17.156-11.202-26.121-4.888
						c-8.966,6.314-11.806,18.739-6.345,27.752c0.28,0.462,0.586,0.894,0.897,1.32c-3.968,3.987-7.682,8.315-11.112,12.956
						c-0.446-0.278-0.897-0.55-1.375-0.79c-9.212-4.649-20.76-0.332-25.794,9.643c-5.034,9.974-1.647,21.829,7.565,26.478
						c0.477,0.241,0.964,0.443,1.453,0.637c-1.696,5.516-2.972,11.075-3.822,16.635c-0.528,0.003-1.056,0.013-1.595,0.062
						c-10.494,0.962-18.802,10.628-18.556,21.591c0.247,10.963,8.954,19.07,19.449,18.109c0.549-0.05,1.087-0.138,1.622-0.234
						c1.11,5.43,2.625,10.734,4.533,15.866c-0.482,0.284-0.961,0.576-1.43,0.907c-8.965,6.313-11.807,18.739-6.346,27.752
						c5.461,9.013,17.156,11.202,26.121,4.888c0.459-0.323,0.892-0.672,1.319-1.027c3.557,3.913,7.456,7.537,11.673,10.843
						c-0.294,0.486-0.583,0.978-0.844,1.495c-5.034,9.974-1.646,21.829,7.565,26.478c9.212,4.649,20.761,0.331,25.794-9.643
						c0.261-0.516,0.486-1.041,0.702-1.567c5.165,1.428,10.396,2.412,15.656,2.949c-0.031,0.554-0.056,1.109-0.043,1.671
						c0.247,10.962,8.954,19.07,19.449,18.109c10.494-0.961,18.802-10.628,18.555-21.59c-0.013-0.573-0.062-1.133-0.12-1.689
						c5.262-1.514,10.428-3.446,15.456-5.779c0.24,0.488,0.49,0.974,0.775,1.445c5.461,9.013,17.156,11.202,26.121,4.888
						c8.966-6.314,11.806-18.739,6.346-27.752c-0.28-0.461-0.585-0.893-0.897-1.319c3.968-3.987,7.681-8.315,11.112-12.956
						C2530.029,1782.662,2530.481,1782.934,2530.958,1783.175z M2416.268,1784.909c-33.447-16.879-45.744-59.92-27.468-96.137
						c18.277-36.216,60.207-51.891,93.653-35.012c33.447,16.879,45.744,59.921,27.468,96.136
						C2491.645,1786.113,2449.715,1801.788,2416.268,1784.909z"/>
				</g>
				<g>
					<path style="fill:#D8DEE8;" d="M2817.563,1507.618c15.717,7.932,35.42,0.566,44.008-16.452
						c8.588-17.018,2.809-37.244-12.907-45.175c-0.814-0.411-1.645-0.756-2.478-1.086c2.893-9.412,5.069-18.896,6.521-28.381
						c0.9-0.005,1.802-0.022,2.72-0.106c17.905-1.64,32.079-18.131,31.658-36.835c-0.421-18.704-15.277-32.537-33.182-30.897
						c-0.936,0.086-1.855,0.236-2.769,0.401c-1.894-9.265-4.479-18.313-7.734-27.069c0.823-0.484,1.641-0.984,2.441-1.547
						c15.295-10.772,20.143-31.97,10.826-47.348c-9.317-15.378-29.27-19.112-44.565-8.34c-0.784,0.552-1.521,1.148-2.25,1.753
						c-6.068-6.675-12.72-12.859-19.916-18.5c0.503-0.829,0.995-1.669,1.44-2.55c8.588-17.018,19.82-35.612,3.981-43.296
						c-36.64-17.776-52.307-2.444-60.896,14.573c-0.445,0.882-0.828,1.777-1.196,2.674c-8.812-2.437-17.738-4.115-26.712-5.032
						c0.054-0.945,0.095-1.892,0.074-2.851c-0.421-18.703,5.104-28.839-12.874-29.145c-39.203-0.667-52.387,16.38-51.967,35.083
						c0.022,0.978,0.106,1.934,0.205,2.883c-8.977,2.582-17.792,5.878-26.369,9.859c-0.411-0.833-0.836-1.661-1.323-2.466
						c-9.317-15.378-29.269-19.111-44.566-8.338c-15.296,10.772-20.143,31.97-10.826,47.348c0.477,0.788,1,1.524,1.53,2.251
						c-6.769,6.803-13.105,14.187-18.958,22.105c-0.76-0.475-1.532-0.938-2.346-1.349c-15.717-7.932-35.419-0.566-44.007,16.452
						c-8.589,17.018-2.81,37.244,12.906,45.175c0.814,0.411,1.645,0.756,2.479,1.086c-2.893,9.412-5.07,18.896-6.521,28.381
						c-0.9,0.005-1.803,0.022-2.719,0.105c-17.906,1.641-32.079,18.132-31.659,36.836c0.421,18.704,15.277,32.536,33.182,30.896
						c0.935-0.086,1.854-0.235,2.768-0.4c1.893,9.265,4.478,18.313,7.733,27.069c-0.823,0.484-1.641,0.984-2.44,1.547
						c-15.296,10.771-20.143,31.97-10.826,47.348c9.316,15.378,40.054,22.458,55.35,11.686c0.784-0.552-9.264-4.494-8.535-5.099
						c6.068,6.675,12.72,12.859,19.915,18.5c-0.502,0.829-0.995,1.669-1.44,2.551c-8.588,17.018-2.81,37.243,12.907,45.175
						c15.717,7.931,35.42,0.566,44.008-16.452c0.445-0.882,0.828-1.777,1.196-2.674c8.812,2.437,17.738,4.116,26.712,5.032
						c-0.054,0.945-0.095,1.892-0.073,2.851c0.421,18.703,15.277,32.536,33.182,30.896s32.079-18.132,31.658-36.835
						c-0.022-0.978-0.106-1.933-0.205-2.883c8.978-2.582,17.792-5.878,26.369-9.859c0.41,0.833,0.836,1.661,1.323,2.465
						c9.317,15.378,29.269,19.112,44.565,8.339c15.296-10.772,20.143-31.97,10.826-47.349c-0.478-0.787-1-1.524-1.53-2.25
						c6.769-6.803,13.105-14.187,18.958-22.105C2815.978,1506.743,2816.75,1507.207,2817.563,1507.618z M2621.89,1510.577
						c-57.064-28.798-78.045-102.231-46.863-164.02c31.182-61.789,102.719-88.532,159.782-59.734
						c57.063,28.798,78.044,102.232,46.863,164.02C2750.49,1512.631,2678.953,1539.375,2621.89,1510.577z"/>
					<path style="fill:#D8DEE8;" d="M2855.427,1416.417c17.905-1.641,32.079-18.132,31.658-36.836
						c-0.421-18.704-15.277-32.537-33.182-30.897c-0.936,0.086-1.855,0.236-2.769,0.401c-1.893-9.265-4.479-18.313-7.734-27.069
						c0.823-0.484,1.641-0.984,2.441-1.548c15.295-10.771,34.188-36.755,23.344-51.096c-20.583-27.218-41.787-15.363-57.083-4.592
						c-0.784,0.552-1.521,1.148-2.249,1.753c-6.069-6.676-12.721-12.859-19.917-18.5c0.503-0.829,0.995-1.669,1.44-2.55
						c4.674-9.262,5.064-19.462,1.941-28.125c-14.736,26.083-29.272,52.276-43.546,78.61c45.548,33.207,60.183,98.829,31.9,154.874
						c-23.967,47.493-71.776,74.245-118.529,71.021c-2.072,5.413-4.106,10.855-6.326,16.216
						c-6.024,14.548-12.873,28.8-19.731,43.032c4.337,0.807,8.692,1.44,13.059,1.886c-0.054,0.946-0.095,1.893-0.073,2.851
						c0.421,18.703,11.816,34.568,44.269,32.767c17.952-0.996,20.991-20.002,20.571-38.706c-0.022-0.977-0.106-1.933-0.205-2.882
						c8.977-2.582,17.792-5.878,26.369-9.859c0.41,0.834,0.836,1.661,1.323,2.465c9.317,15.379,41.523,21.843,56.82,11.071
						c15.296-10.772,7.889-34.702-1.428-50.08c-0.478-0.788-1-1.524-1.53-2.251c6.769-6.802,13.105-14.187,18.958-22.104
						c0.761,0.475,1.532,0.938,2.346,1.348c15.717,7.932,35.42,0.566,44.008-16.452c8.588-17.017,2.809-37.243-12.907-45.174
						c-0.815-0.411-1.646-0.756-2.479-1.086c2.893-9.412,5.069-18.896,6.521-28.381
						C2853.606,1416.518,2854.509,1416.501,2855.427,1416.417z"/>
					<path style="fill:#FFFFFF;" d="M2834.451,1509.496c15.717,7.932,35.42,0.566,44.008-16.452
						c8.588-17.018,2.81-37.243-12.907-45.175c-0.814-0.411-1.645-0.756-2.478-1.086c2.893-9.412,5.069-18.896,6.521-28.382
						c0.899-0.005,1.802-0.022,2.719-0.106c17.905-1.64,32.079-18.131,31.658-36.835c-0.421-18.704-15.277-32.537-33.182-30.897
						c-0.936,0.086-1.855,0.236-2.769,0.401c-1.893-9.265-4.479-18.313-7.734-27.069c0.823-0.484,1.641-0.984,2.441-1.547
						c15.295-10.771,20.143-31.97,10.826-47.348c-9.317-15.378-29.27-19.111-44.565-8.34c-0.784,0.552-1.521,1.148-2.25,1.753
						c-6.068-6.675-12.72-12.859-19.916-18.5c0.502-0.829,0.995-1.669,1.44-2.55c8.588-17.017,2.809-37.243-12.907-45.175
						c-15.717-7.932-35.419-0.566-44.008,16.452c-0.445,0.882-0.828,1.777-1.197,2.674c-8.812-2.437-17.738-4.116-26.712-5.032
						c0.053-0.945,0.094-1.892,0.073-2.85c-0.421-18.703-15.277-32.536-33.182-30.896c-17.905,1.64-32.079,18.132-31.658,36.835
						c0.022,0.978,0.106,1.933,0.205,2.882c-8.977,2.583-17.792,5.878-26.37,9.859c-0.41-0.833-0.835-1.661-1.322-2.466
						c-9.316-15.378-29.269-19.111-44.566-8.339c-15.296,10.773-20.142,31.971-10.826,47.349c0.478,0.788,1,1.524,1.531,2.251
						c-6.769,6.803-13.106,14.186-18.958,22.105c-0.76-0.475-1.531-0.938-2.346-1.349c-15.716-7.932-35.419-0.565-44.008,16.452
						c-8.588,17.017-2.81,37.243,12.907,45.175c0.814,0.411,1.645,0.756,2.479,1.086c-2.893,9.412-5.07,18.896-6.521,28.381
						c-0.899,0.005-1.803,0.022-2.719,0.105c-17.905,1.641-32.079,18.132-31.658,36.836c0.42,18.704,15.277,32.536,33.182,30.896
						c0.935-0.085,1.854-0.235,2.768-0.4c1.893,9.265,4.479,18.313,7.733,27.07c-0.823,0.484-1.641,0.984-2.44,1.547
						c-15.296,10.771-20.143,31.971-10.826,47.348c9.317,15.378,29.27,19.111,44.565,8.34c0.784-0.553,1.521-1.148,2.249-1.753
						c6.069,6.675,12.721,12.859,19.916,18.5c-0.502,0.829-0.995,1.669-1.439,2.551c-8.589,17.018-2.81,37.243,12.906,45.175
						c15.717,7.931,35.42,0.566,44.008-16.453c0.445-0.881,0.828-1.776,1.196-2.673c8.812,2.437,17.739,4.115,26.713,5.031
						c-0.053,0.945-0.095,1.892-0.074,2.851c0.421,18.703,15.277,32.536,33.182,30.896c17.905-1.64,32.079-18.132,31.658-36.835
						c-0.022-0.977-0.106-1.933-0.205-2.882c8.978-2.583,17.792-5.878,26.37-9.859c0.41,0.833,0.836,1.662,1.323,2.464
						c9.317,15.378,29.269,19.113,44.565,8.34c15.296-10.772,20.143-31.97,10.827-47.349c-0.478-0.787-1-1.524-1.531-2.25
						c6.769-6.802,13.105-14.186,18.958-22.105C2832.866,1508.622,2833.637,1509.085,2834.451,1509.496z M2638.777,1512.456
						c-57.063-28.798-78.045-102.232-46.863-164.02c31.183-61.788,102.719-88.532,159.782-59.734
						c57.063,28.797,78.045,102.232,46.863,164.02C2767.377,1514.51,2695.841,1541.254,2638.777,1512.456z"/>
				</g>
			</g>
		</g>
		<g>
			
				<linearGradient id="SVGID_00000008144584135004714460000002954255128838049718_" gradientUnits="userSpaceOnUse" x1="1471.8142" y1="714.2418" x2="1257.2303" y2="920.4924">
				<stop  offset="0" style="stop-color:#AA80F9"/>
				<stop  offset="0.9964" style="stop-color:#6165D7"/>
			</linearGradient>
			<path style="fill:url(#SVGID_00000008144584135004714460000002954255128838049718_);" d="M1043.653,1678.652
				c-18.929,0.548-37.393-4.223-53.386-13.807c-48.726-29.209-120.724-77.445-185.498-140.588
				c-82.193-80.125-129.417-161.571-139.75-241.548l-0.162-1.253l-2.005-341.261c0-67.444,43.99-122.19,126.58-158.163
				c68.236-29.721,158.676-44.448,254.221-41.682c94.433,2.733,181.814,22.218,246.49,54.683
				c76.882,38.594,117.221,92.83,117.221,157.133l-1.829,326.078l-0.148,1.199c-9.442,76.586-52.892,155.75-129.688,235.803
				c-61.598,64.207-131.204,115.091-179.009,146.619C1080.876,1672.295,1062.539,1678.106,1043.653,1678.652z"/>
			
				<linearGradient id="SVGID_00000071559277729202432490000008515710418530122918_" gradientUnits="userSpaceOnUse" x1="834.0363" y1="761.2389" x2="1563.4586" y2="1954.2572">
				<stop  offset="0" style="stop-color:#AA80F9"/>
				<stop  offset="0.9964" style="stop-color:#6165D7"/>
			</linearGradient>
			<path style="fill:url(#SVGID_00000071559277729202432490000008515710418530122918_);" d="M1062.393,1678.652
				c-18.679,0.548-36.9-4.223-52.681-13.807c-48.082-29.209-119.129-77.445-183.047-140.588
				c-81.107-80.125-127.707-161.571-137.902-241.548l-0.16-1.253l-1.979-341.261c0-67.444,43.409-122.19,124.907-158.163
				c67.335-29.721,156.58-44.448,250.863-41.682c93.184,2.733,179.411,22.218,243.233,54.683
				c75.867,38.594,115.673,92.83,115.673,157.133l-1.805,326.078l-0.146,1.199c-9.317,76.586-52.193,155.75-127.975,235.803
				c-60.784,64.207-129.471,115.091-176.643,146.619C1099.124,1672.295,1081.03,1678.106,1062.393,1678.652z"/>
			
				<linearGradient id="SVGID_00000108269652966124962770000003252000450436552872_" gradientUnits="userSpaceOnUse" x1="1220.8208" y1="1440.4958" x2="628.4239" y2="249.3081">
				<stop  offset="0" style="stop-color:#AA80F9"/>
				<stop  offset="0.9964" style="stop-color:#6165D7"/>
			</linearGradient>
			<path style="fill:url(#SVGID_00000108269652966124962770000003252000450436552872_);" d="M709.156,940.44l1.992,339.537
				c22.35,173.241,225.947,313.501,314.62,366.791c25.402,15.266,57.879,14.361,83.102-2.236
				c86.822-57.131,279.268-200.958,299.83-367.523l1.827-325.179C1410.526,710.575,709.156,688.52,709.156,940.44z"/>
			
				<linearGradient id="SVGID_00000014598938311510731280000000338623201141378712_" gradientUnits="userSpaceOnUse" x1="835.5882" y1="409.2523" x2="1025.9696" y2="997.3963">
				<stop  offset="0" style="stop-color:#AA80F9"/>
				<stop  offset="0.9964" style="stop-color:#6165D7"/>
			</linearGradient>
			<path style="fill:url(#SVGID_00000014598938311510731280000000338623201141378712_);" d="M1067.425,1594.432
				c-1.625,0.038-4.085-0.232-6.57-1.739c-36.511-22.109-107.286-68.421-168.858-128.9
				c-66.507-65.329-104.864-128.845-113.66-188.499l-1.951-333.915c0.081-32.039,25.443-59.459,75.158-81.4
				c55.499-24.494,134.313-37.346,215.883-35.409c80.756,1.917,157.271,18.174,210.28,44.478
				c46.89,23.266,70.595,50.695,70.67,81.626l-1.818,322.354c-8.21,57.727-44.21,119.959-107.42,185.377
				c-59.433,61.509-128.86,110.268-165.147,133.979C1071.508,1594.006,1069.05,1594.394,1067.425,1594.432z"/>
			
				<linearGradient id="SVGID_00000155139334489762824930000009306246107916182972_" gradientUnits="userSpaceOnUse" x1="988.1169" y1="1254.3817" x2="638.5561" y2="2012.864">
				<stop  offset="0" style="stop-color:#AA80F9"/>
				<stop  offset="0.9964" style="stop-color:#6165D7"/>
			</linearGradient>
			<path style="fill:url(#SVGID_00000155139334489762824930000009306246107916182972_);" d="M1059.094,1571.609
				c-36.872-22.71-102.438-66.561-159.643-122.859c-62.501-61.511-98.67-120.537-107.173-175.153l-1.936-331.976
				c0.058-22.907,21.114-43.92,62.425-62.211c52.574-23.279,127.898-35.546,206.325-33.785
				c77.675,1.744,150.889,17.085,201.202,41.979c39.093,19.342,58.869,40.44,58.923,62.782l-1.814,321.168
				c-7.978,52.99-42.093,110.943-101.752,172.574C1160.262,1501.348,1095.798,1547.36,1059.094,1571.609z"/>
			<g>
				<path style="fill:#FFFFFF;" d="M1191.025,1136.962l-248.291,2.209c-19.087,0.17-34.638,15.049-34.638,33.224v159.083
					c0,18.068,15.493,32.073,34.511,31.294l247.414-10.131c17.598-0.72,31.87-15.288,31.96-32.552l0.786-151.971
					C1222.857,1150.758,1208.683,1136.805,1191.025,1136.962z"/>
				
					<linearGradient id="SVGID_00000075850997151909856960000005200472755879700631_" gradientUnits="userSpaceOnUse" x1="1126.4749" y1="1054.1625" x2="1044.0315" y2="1324.5773">
					<stop  offset="0" style="stop-color:#AA80F9"/>
					<stop  offset="0.9964" style="stop-color:#6165D7"/>
				</linearGradient>
				<path style="fill:url(#SVGID_00000075850997151909856960000005200472755879700631_);" d="M1100.853,1228.186
					c0.055-17.57-15.025-31.458-33.438-30.294c-16.303,1.03-29.826,14.195-30.741,29.995c-0.709,12.255,5.919,22.872,16.01,28.261
					c4.289,2.291,6.411,7.094,5.564,11.834l-7.176,40.187c-0.913,5.115,3.141,9.616,8.487,9.428l18.164-0.638
					c5.31-0.185,9.35-4.944,8.473-9.972l-6.943-39.805c-0.829-4.753,1.62-9.465,5.926-12.054
					C1094.537,1249.499,1100.817,1239.48,1100.853,1228.186z"/>
				<path style="fill:#FFFFFF;" d="M1187.538,1121.183c-7.457,0.048-13.487-5.875-13.455-13.234l0.151-34.653
					c0.152-34.804-28.621-63.436-64.481-63.793l-81.043-0.804c-37.113-0.369-67.628,28.571-67.659,64.476l-0.031,35.748
					c-0.007,7.59-6.469,13.785-14.451,13.837c-8,0.052-14.496-6.083-14.493-13.705l0.014-35.897
					c0.02-51.315,43.722-92.521,96.674-91.786l81.079,1.127c50.935,0.708,91.622,41.474,91.385,90.811l-0.166,34.516
					C1201.025,1115.155,1194.977,1121.134,1187.538,1121.183z"/>
			</g>
		</g>
	</g>
</g>
</svg>
